<?xml version="1.0" encoding="utf-8"?>
<!-- Generator: Adobe Illustrator 22.0.1, SVG Export Plug-In . SVG Version: 6.00 Build 0)  -->
<svg version="1.1" id="Layer_1" xmlns="http://www.w3.org/2000/svg" xmlns:xlink="http://www.w3.org/1999/xlink" x="0px" y="0px"
	 viewBox="0 0 256 256" style="enable-background:new 0 0 256 256;" xml:space="preserve">
<style type="text/css">
	.st0{fill:#FFFFFF;}
</style>
<g>
	<path class="st0" d="M33.5,193.9c12.8,28.2,52.8,42.4,86.5,48.2c33.7,5.8,72.5,0.1,94.3-26.3c11-13.4,16.5-30.5,20-47.5
		c4.5-21.6,6.3-44.4-0.1-65.5c-7.6-25.1-26.3-45.8-48.5-59.7s-32.1-25-57.8-29.8c-12.4-2.3-33.6-2.2-45.4,2
		c-10.1,3.6-25.9,12.9-33,20.9C8.8,81.7,11,137.1,33.5,193.9"/>
</g>
<g id="nZFHVe.tif_1_">
	<g>
		<path d="M125.4,70.2c7.1,0,14.1,0,21.2,0c0,6.6,0,13.2,0,19.9c-0.7,0-1.1,0-1.6,0c-3.6,0-7.2,0-10.9,0c-3.5,0-5.4,1.8-5.5,5.4
			c-0.1,1.4,0,2.8,0,4.2c0,2.6,0,5.2,0,7.9c6.2,0,12.2,0,18.2,0c0,0.6,0,1,0,1.3c-0.6,6-1.2,12-1.8,18.1c-0.1,1-0.5,1.1-1.4,1.1
			c-4.5,0-8.9,0-13.4,0c-0.5,0-1,0-1.7,0c0,19.4,0,38.5,0,57.8c-8,0-16,0-24,0c0-19.3,0-38.4,0-57.8c-0.7,0-1.3,0-1.8,0
			c-3.2,0-6.4-0.1-9.7-0.1c0-6.8,0-13.6,0-20.4c3.8,0,7.6,0,11.5,0c0-3.3-0.1-6.6,0-9.8c0.1-3.3,0.1-6.8,0.8-10
			c1.9-9,7.3-14.9,16.5-16.9C123,70.6,124.2,70.4,125.4,70.2z"/>
	</g>
</g>
</svg>
