<?xml version="1.0" encoding="utf-8"?>
<!-- Generator: Adobe Illustrator 22.0.1, SVG Export Plug-In . SVG Version: 6.00 Build 0)  -->
<svg version="1.1" id="Layer_1" xmlns="http://www.w3.org/2000/svg" xmlns:xlink="http://www.w3.org/1999/xlink" x="0px" y="0px"
	 viewBox="0 0 256 256" style="enable-background:new 0 0 256 256;" xml:space="preserve">
<style type="text/css">
	.st0{fill:#FFFFFF;}
</style>
<g>
	<path class="st0" d="M54.9,241.1c32.9,6.1,73.3,4.5,109.2-2.9c35.9-7.4,72.4-28.3,83.9-63.1c5.8-17.7,4.6-36.9,1.5-55.2
		c-3.9-23.3-11-46.7-25.6-65.3c-17.3-22.1-44.1-35.5-71.6-40.7s-56.1-2.7-83.6,2.6c-13.2,2.5-26.9,6-37.1,14.8
		c-8.7,7.5-14,18.2-18,28.9C-9.4,121.6,10.3,193.3,54.9,241.1"/>
</g>
<g id="e6qxki_1_">
	<g>
		<path d="M123.6,189.3c-7.9,0-15.7,0.2-23.6,0c-17.3-0.6-30.1-13.3-30.5-30.7c-0.4-15.1-0.6-30.1-0.4-45.2c0-5.4,0.6-11,2.1-16.1
			c3.5-12.4,12.2-19.4,24.7-21.3c5.6-0.9,11.4-1,17-1.1c10.6-0.2,21.3-0.3,31.9,0.1c5.9,0.2,12,0.8,17.6,2.5
			c11.8,3.5,18.2,12.3,20.2,24.2c0.8,5,1.1,10.2,1.1,15.3c0,13.9-0.1,27.7-0.5,41.6c-0.5,17.5-13.3,30.2-30.7,30.8
			C142.8,189.5,133.2,189.3,123.6,189.3z M79.3,132C79.4,132,79.1,132,79.3,132c0,4.6-0.1,9.2,0,13.8c0.1,4.7,0.2,9.4,0.6,14
			c0.7,9.1,6.3,15.9,15.1,18.3c2.7,0.7,5.6,1.2,8.4,1.2c15.2,0.1,30.5,0.2,45.7,0c5.5-0.1,10.8-1,15.5-4.4
			c6.6-4.8,8.5-11.8,8.6-19.4c0.2-15.3,0.2-30.5,0-45.8c-0.1-5.5-0.9-10.9-4.2-15.5c-4.6-6.5-11.4-8.7-18.7-8.8
			c-17-0.1-34.1-0.1-51.1,0.4c-10.9,0.4-18.5,8.3-19.3,19.1C79.3,114,79.6,123,79.3,132z"/>
		<path d="M96.9,132.1c0-16.2,13-29.2,29.3-29.2c16.5,0,29.4,12.9,29.5,29.6c0,16.2-13.1,29.2-29.3,29.3
			C109.8,161.8,97,148.8,96.9,132.1z M126.4,151.6c10.5-0.1,19.3-8.9,19.2-19.1c-0.1-10.9-8.9-19.7-19.4-19.4
			c-10.5,0.3-19,8.7-19,19C107.1,142.8,115.8,151.7,126.4,151.6z"/>
		<path d="M156.9,108.4c-3.8,0-6.7-3-6.7-6.8c0-3.8,3.2-7,6.9-6.9c3.6,0.1,6.7,3.3,6.8,6.9C164,105.3,160.8,108.4,156.9,108.4z"/>
	</g>
</g>
</svg>
