<?xml version="1.0" encoding="utf-8"?>
<!-- Generator: Adobe Illustrator 22.0.1, SVG Export Plug-In . SVG Version: 6.00 Build 0)  -->
<svg version="1.1" id="Layer_1" xmlns="http://www.w3.org/2000/svg" xmlns:xlink="http://www.w3.org/1999/xlink" x="0px" y="0px"
	 viewBox="0 0 256 256" style="enable-background:new 0 0 256 256;" xml:space="preserve">
<style type="text/css">
	.st0{fill:#FFFFFF;}
</style>
<g>
	<path class="st0" d="M228.9,59.5c-12.5-28.9-52.5-43.1-86.3-48.7s-72.9,0.8-95.1,28.3C36.1,53.1,30.5,70.8,26.7,88.4
		c-4.8,22.3-6.8,45.8-0.7,67.5c7.3,25.8,25.8,46.9,48,61s31.9,25.4,57.7,30c12.4,2.2,33.7,1.9,45.7-2.6
		c10.2-3.8,26.2-13.6,33.4-21.9C252.3,174.9,250.8,117.8,228.9,59.5"/>
</g>
<g id="gWLwQs.tif">
	<g>
		<path d="M171.9,112.1c-0.2,7.1-2,13.8-5.6,19.9c-9.9,16.6-19.9,33.2-29.8,49.8c-1.5,2.4-4.3,2.5-5.8,0.1
			c-10.2-16.5-20.4-32.9-30.6-49.4c-4.3-6.9-6.3-14.5-5.7-22.6c1.3-15.2,8.9-26.3,22.7-32.9c5.8-2.8,12-3.7,18.5-3.3
			c16.6,0.9,31.8,13.2,35.4,31.2C171.5,107.2,171.6,109.7,171.9,112.1z M133.5,174.2c0.2-0.3,0.4-0.6,0.5-0.8
			c8.9-14.8,17.7-29.6,26.5-44.4c3.9-6.5,5.5-13.6,4.4-21.1c-0.9-6.7-3.7-12.7-8.4-17.6c-7.7-8.1-17.2-11.4-28.2-10
			c-8,1.1-14.6,4.8-19.8,10.9c-4.7,5.4-7.3,11.7-7.8,18.8c-0.5,7.2,1.4,13.8,5.2,19.9c9,14.4,17.9,28.8,26.8,43.2
			C133.1,173.5,133.3,173.8,133.5,174.2z"/>
		<path d="M133.1,131.6c-10.6,0-19.4-8.6-19.4-19.2c0-10.8,8.6-19.5,19.3-19.6c10.6,0,19.4,8.7,19.4,19.2
			C152.4,122.9,143.9,131.6,133.1,131.6z M120.1,112.2c0,7.2,5.7,13,12.9,13c7.2,0,12.9-5.7,12.9-12.9c0-7.2-5.7-13-12.9-13
			C125.9,99.3,120.2,105,120.1,112.2z"/>
	</g>
</g>
</svg>
