<?xml version="1.0" encoding="utf-8"?>
<!-- Generator: Adobe Illustrator 22.0.1, SVG Export Plug-In . SVG Version: 6.00 Build 0)  -->
<svg version="1.1" id="Layer_1" xmlns="http://www.w3.org/2000/svg" xmlns:xlink="http://www.w3.org/1999/xlink" x="0px" y="0px"
	 viewBox="0 0 256 256" style="enable-background:new 0 0 256 256;" xml:space="preserve">
<style type="text/css">
	.st0{fill:#FFFFFF;}
</style>
<g>
	<path class="st0" d="M200.8,15c-32.9-6.1-73.3-4.5-109.2,2.9S19.2,46.1,7.7,81c-5.8,17.7-4.6,36.9-1.5,55.2
		c3.9,23.3,11,46.7,25.6,65.3c17.3,22.1,44.1,35.5,71.6,40.7c27.6,5.2,56.1,2.7,83.6-2.6c13.2-2.5,26.9-6,37.1-14.8
		c8.7-7.5,14-18.2,18-28.9C265,134.6,245.4,62.9,200.8,15"/>
</g>
<g>
	<g>
		<g>
			<path d="M192.3,79.6H63c-1.7,0-3.1,1.4-3.1,3.1v92.5c0,1.7,1.4,3.1,3.1,3.1h129.3c1.7,0,3.1-1.4,3.1-3.1V82.7
				C195.4,81,194,79.6,192.3,79.6z M189.2,164.7l-38.1-38.2l-4.4,4.4l41.2,41.3H67.4l41.2-41.3l-4.4-4.4l-38.1,38.2V85.8h123.2
				V164.7z"/>
		</g>
	</g>
	<g>
		<g>
			<path d="M183,85.8l-55.4,55.4L72.3,85.8h-6.2v2.5l59.4,59.5c1.2,1.2,3.1,1.2,4.4,0l59.4-59.5v-2.5H183z"/>
		</g>
	</g>
</g>
</svg>
