<?xml version="1.0" encoding="utf-8"?>
<!-- Generator: Adobe Illustrator 22.0.1, SVG Export Plug-In . SVG Version: 6.00 Build 0)  -->
<svg version="1.1" id="Layer_1" xmlns="http://www.w3.org/2000/svg" xmlns:xlink="http://www.w3.org/1999/xlink" x="0px" y="0px"
	 viewBox="0 0 256 256" style="enable-background:new 0 0 256 256;" xml:space="preserve">
<style type="text/css">
	.st0{fill:#FFFFFF;}
</style>
<g>
	<path class="st0" d="M103.6,242.9c29,14.9,68-1.1,96.6-19.8s52.9-50.8,50.3-88.4c-1.3-19.1-9.2-37.4-18.5-54.2
		c-11.8-21.4-26.4-41.9-45.7-55.3c-23-15.9-51.1-20.4-76.9-16.5S68.6,9.9,46.5,23.9c-10.6,6.7-26,21.6-31.7,33.5
		C10,67.5,4.9,86.5,5.3,98.2C7.4,165.3,47.6,210.6,103.6,242.9"/>
</g>
<g id="svsVVR.tif">
	<g>
		<path d="M154.9,76.9c19.8-0.5,40.4,15,40.6,40.5c0.2,22.2-16.3,40.7-40.3,40.9c-24.3,0.2-40.7-19.4-40.8-40.4
			C114.3,95.1,132.2,77,154.9,76.9z"/>
		<path d="M82.2,76.6c6.4,0,12.8,0,19.3,0c0,36.5,0,72.9,0,109.5c-6.4,0-12.7,0-19.3,0C82.2,149.7,82.2,113.2,82.2,76.6z"/>
	</g>
</g>
</svg>
