<?xml version="1.0" encoding="utf-8"?>
<!-- Generator: Adobe Illustrator 22.0.1, SVG Export Plug-In . SVG Version: 6.00 Build 0)  -->
<svg version="1.1" id="Layer_1" xmlns="http://www.w3.org/2000/svg" xmlns:xlink="http://www.w3.org/1999/xlink" x="0px" y="0px"
	 viewBox="0 0 256 256" style="enable-background:new 0 0 256 256;" xml:space="preserve">
<style type="text/css">
	.st0{fill:#FFFFFF;}
</style>
<g>
	<path class="st0" d="M228.7,197.8c25.1-20.7,25.9-63,20.1-96.7c-5.8-33.7-25.6-68.7-61.1-81.4c-18-6.4-37.9-6.3-57-4.5
		c-24.3,2.3-48.9,7.6-68.9,20.1C38.1,50.2,22.9,74.2,16.2,99.5s-14.9,38-10.8,63.9c2,12.4,9.5,32.5,18.1,42.5
		c7.3,8.5,22.7,20.6,33.6,24.9C119.4,255.4,176.9,236.5,228.7,197.8"/>
</g>
<g id="gUO3Y8_1_">
	<g>
		<path d="M93.6,181.7c-3,0-6,0-8.9,0c-3.8,0-3.9-0.1-3.1-4c3.5-15.2,7-30.3,10.5-45.5c3.9-16.9,7.9-33.9,11.7-50.8
			c0.5-2.3,1.5-3.2,3.8-3.1c12.8,0.1,25.5,0,38.3,0.1c5.9,0.1,11.7,0.6,17.4,2.3c14.8,4.2,21,14.3,19.6,29.3
			c-1.7,17.1-12.4,26.8-27.5,32.7c-8.1,3.2-16.7,4.4-25.4,4.6c-4.4,0.1-8.8,0.1-13.2,0c-2.1-0.1-3,0.6-3.5,2.8
			c-2.1,9.6-4.5,19.1-6.5,28.7c-0.5,2.4-1.7,3.1-3.9,3.1C99.8,181.6,96.7,181.7,93.6,181.7z M130.4,126.3c1.7,0,3.5,0,5.2,0
			c5.1,0,9.9-1.2,14-4.3c4.7-3.5,7.4-10.5,5.8-15.3c-1.3-4.2-5.8-6.8-12.5-6.9c-4.4-0.1-8.8,0-13.2-0.1c-1.6,0-2.8,0.2-3.3,2
			c-2,7.4-4.1,14.8-6.2,22.2c-0.5,1.7,0.1,2.3,1.7,2.3C124.9,126.2,127.6,126.3,130.4,126.3z"/>
		<path d="M184.6,96.6c6.2,3.9,9.2,9.6,10,16.6c2.5,20.2-9,33-23.5,39.4c-9.1,4.1-18.6,5.8-28.5,6c-4.2,0.1-8.5,0.2-12.7,0
			c-2.9-0.1-4.3,0.8-4.9,3.8c-1.9,9-4.2,18-6.1,27c-0.6,2.9-1.8,4-4.8,3.9c-6-0.2-12.1-0.1-18.1,0c-2.3,0-2.8-0.8-2.3-3
			c2.1-7.8,0.6-6.7,8.5-6.8c0.3,0,0.6,0,0.9,0c4.7,0,4.6,0,5.6-4.5c2-8.8,4.1-17.6,6-26.4c0.5-2.4,1.7-3.3,4.1-3.2
			c11.3,0.3,22.4-0.3,33.3-3.5c9.6-2.8,18-7.6,24.5-15.4c7.4-8.9,9.3-19.3,7.8-30.6c-0.1-0.9-0.3-1.7-0.4-2.6
			C184.2,97.1,184.3,97,184.6,96.6z"/>
	</g>
</g>
<g>
	<path class="st0" d="M700.4,778.6c29,14.9,68-1.1,96.6-19.8c28.6-18.7,52.9-50.8,50.3-88.4c-1.3-19.1-9.2-37.4-18.5-54.2
		c-11.8-21.4-26.4-41.9-45.7-55.3c-23-15.9-51.1-20.4-76.9-16.5c-25.8,3.9-40.8,1.4-62.8,15.3c-10.6,6.7-26,21.6-31.7,33.5
		c-4.9,10.1-9.9,29.1-9.5,40.8C604.2,701,644.4,746.3,700.4,778.6"/>
</g>
<g id="svsVVR.tif">
	<g>
		<path d="M751.7,612.6c19.8-0.5,40.4,15,40.6,40.5c0.2,22.2-16.3,40.7-40.3,40.9c-24.3,0.2-40.7-19.4-40.8-40.4
			C711.1,630.8,729.1,612.7,751.7,612.6z"/>
		<path d="M679,612.2c6.4,0,12.8,0,19.3,0c0,36.5,0,72.9,0,109.5c-6.4,0-12.7,0-19.3,0C679,685.3,679,648.9,679,612.2z"/>
	</g>
</g>
</svg>
