<?xml version="1.0" encoding="utf-8"?>
<!-- Generator: Adobe Illustrator 22.0.1, SVG Export Plug-In . SVG Version: 6.00 Build 0)  -->
<svg version="1.1" id="Layer_1" xmlns="http://www.w3.org/2000/svg" xmlns:xlink="http://www.w3.org/1999/xlink" x="0px" y="0px"
	 viewBox="0 0 256 256" style="enable-background:new 0 0 256 256;" xml:space="preserve">
<style type="text/css">
	.st0{fill:#FFFFFF;}
</style>
<g>
	<path class="st0" d="M158.2,13.1c-26-6.4-54-0.8-80,5.7S27.9,41.5,15.4,65.2C3.4,87.9,3.2,115,7,140.4c5.1,33,18.1,66.8,44.9,86.7
		c22.5,16.7,52.3,21.3,80,17.1c27.7-4.2,53.5-16.7,77.2-31.5c10.9-6.8,21.7-14.5,29-25.1c6-8.8,9.3-19.1,11.2-29.6
		C260.6,96.3,218.6,29.6,158.2,13.1"/>
</g>
<g>
	<g>
		<path d="M173.1,146.7l-13.8-13.9c-3.8-3.8-10-3.8-13.8,0l-6.3,6.3c-2.9,2.9-7.6,2.9-10.5,0l-27.3-27.3c-2.9-2.9-2.9-7.6,0-10.5
			c1-1,3.9-3.9,6.3-6.3c3.8-3.8,3.9-10,0-13.9L93.9,67.3c-3.8-3.8-10-3.8-13.8,0c-2.8,2.8-3.8,3.7-5,5c-13.8,13.8-13.8,36.2,0,50
			l43.2,43.3c13.8,13.8,36.1,13.8,49.9,0l5-5C176.9,156.7,176.9,150.5,173.1,146.7z M84.6,72c1.3-1.3,3.3-1.3,4.6,0l13.8,13.8
			c1.3,1.3,1.3,3.3,0,4.6l-2.3,2.3L82.3,74.2L84.6,72z M122.8,160.9l-43.2-43.3C69,107,68.4,90.3,77.8,78.9l18.4,18.4
			c-4.8,5.5-4.6,13.8,0.6,19.1l27.3,27.3c0,0,0,0,0,0c5.2,5.2,13.6,5.5,19.1,0.6l18.4,18.4C150.2,172.2,133.5,171.7,122.8,160.9z
			 M168.5,155.9l-2.3,2.3l-18.4-18.5l2.3-2.3c1.3-1.3,3.3-1.3,4.6,0l13.8,13.9C169.8,152.6,169.8,154.6,168.5,155.9z"/>
	</g>
</g>
</svg>
