<?xml version="1.0" encoding="utf-8"?>
<!-- Generator: Adobe Illustrator 22.0.1, SVG Export Plug-In . SVG Version: 6.00 Build 0)  -->
<svg version="1.1" id="Layer_1" xmlns="http://www.w3.org/2000/svg" xmlns:xlink="http://www.w3.org/1999/xlink" x="0px" y="0px"
	 viewBox="0 0 256 256" style="enable-background:new 0 0 256 256;" xml:space="preserve">
<style type="text/css">
	.st0{fill:#FFFFFF;}
</style>
<g>
	<path class="st0" d="M97.8,242.9c26,6.4,54,0.8,80-5.7c26-6.5,50.3-22.6,62.8-46.3c12-22.7,12.2-49.9,8.3-75.2
		c-5.1-33-18.1-66.8-44.9-86.7c-22.5-16.7-52.3-21.3-80-17.1S70.6,28.5,46.9,43.3c-10.9,6.8-21.7,14.5-29,25.1
		c-6,8.8-9.3,19.1-11.2,29.6C-4.6,159.7,37.4,226.4,97.8,242.9"/>
</g>
<g id="eeCpQw.tif">
	<g>
		<path d="M130.1,178c-12.6-0.4-25.2-0.6-37.7-1.2c-5.2-0.2-10.5-0.7-15.6-1.6c-8.6-1.5-13.9-7.2-15.3-15.9
			c-2.2-14.1-2.6-28.3-1.8-42.6c0.4-7.1,1.1-14.2,2.2-21.2c1.3-8.1,7.8-13.5,16-14.6c15.5-2,31.1-2.2,46.7-2.1
			c14.2,0,28.3,0.4,42.5,0.9c5.3,0.2,10.7,0.8,16,1.7c8.3,1.3,13.3,6.3,15.1,14.6c1.7,8.1,2.3,16.3,2.4,24.5
			c0.1,9.3-0.2,18.7-0.7,28c-0.2,4.5-1.1,9-2,13.4c-1.6,7.6-7.8,12.7-15.5,13.7c-15.7,2-31.5,2-47.3,2.2c-1.6,0-3.3,0-4.9,0
			C130.1,177.9,130.1,177.9,130.1,178z M116,149.5c12.4-7.1,24.4-14.1,36.8-21.2c-12.4-7.2-24.5-14.2-36.8-21.3
			C116,121.3,116,135.2,116,149.5z"/>
		<path class="st0" d="M116,149.5c0-14.3,0-28.2,0-42.4c12.3,7.1,24.4,14.1,36.8,21.3C140.4,135.4,128.4,142.4,116,149.5z"/>
	</g>
</g>
</svg>
